<svg width="500" height="500" viewBox="0 0 500 500" fill="none" xmlns="http://www.w3.org/2000/svg">
<circle cx="250" cy="250" r="250" fill="#FC490B"/>
<path d="M160.939 213.748L174.367 385.535C174.568 388.114 176.314 390.314 178.781 391.096L249.439 413.498C250.689 413.894 252.03 413.894 253.28 413.498L323.938 391.096C326.405 390.314 328.151 388.114 328.353 385.535L341.781 213.748C342.07 210.054 339.151 206.898 335.446 206.898H167.274C163.569 206.898 160.65 210.054 160.939 213.748ZM307.346 267.047H219.833L222.474 291.402H305.442L300.015 360.833L251.36 376.259L202.705 360.833L199.87 324.559H225.407V342.352L252.042 349.501L278.518 342.352L280.572 313.995H199.044L193.631 244.746H309.088L307.346 267.047Z" fill="white"/>
<path d="M137.899 172.955V116.231H152.784V138.116H175.635V116.231H190.52V172.955H175.635V150.265H152.784V172.955H137.899ZM213.948 172.955V128.219H196.73V116.231H246.051V128.219H228.833V172.955H213.948ZM252.544 172.955V116.231H265.418L284.004 157.829H281.349L299.854 116.231H312.808V172.955H299.372V138.196H302.831L286.739 172.955H278.372L262.199 138.196H265.9V172.955H252.544ZM323.412 172.955V116.231H338.297V160.645H362.596V172.955H323.412Z" fill="white"/>
</svg>
